<svg width="24" height="24" viewBox="0 0 24 24" fill="none" xmlns="http://www.w3.org/2000/svg">
<g clip-path="url(#clip0_7_568)">
<path d="M13.998 15L7 14.998C4.791 14.998 3 13.206 3 10.996V9.999C3 7.789 4.791 5.998 7.001 5.998H13.999L17.871 3.352C19.199 2.445 21 3.396 21 5.004V15.996C21 17.604 19.198 18.555 17.871 17.647L13.998 15V15Z" stroke="#E77DAE" stroke-width="1.5" stroke-linecap="round" stroke-linejoin="round"/>
<path d="M14 6V15" stroke="#E77DAE" stroke-width="1.5" stroke-linecap="round" stroke-linejoin="round"/>
<path d="M6 15L7.529 18.858C7.802 19.548 8.464 20 9.199 20C10.47 20 11.34 18.706 10.871 17.513L9.882 15" stroke="#E77DAE" stroke-width="1.5" stroke-linecap="round" stroke-linejoin="round"/>
</g>
<defs>
<clipPath id="clip0_7_568">
<rect width="24" height="24" fill="white"/>
</clipPath>
</defs>
</svg>
