<svg width="24" height="24" viewBox="0 0 24 24" fill="none" xmlns="http://www.w3.org/2000/svg">
<g clip-path="url(#clip0_7_327)">
<path d="M21 15.6691V18.8891" stroke="#796BE9" stroke-width="1.5" stroke-linecap="round" stroke-linejoin="round"/>
<path d="M20.9994 7.27701V10.497H21.0004V10.497C20.5339 10.4029 20.0508 10.4343 19.6004 10.588V10.588C18.7634 10.8742 18.1284 11.5649 17.9134 12.423V12.423C17.5518 13.8379 18.4055 15.278 19.8204 15.6396C20.0335 15.6941 20.2525 15.7218 20.4724 15.722V15.722C20.6497 15.7217 20.8266 15.704 21.0004 15.669V18.889V18.8892C21.0004 20.0549 20.0554 21 18.8896 21C18.8895 21 18.8894 21 18.8893 21H15.6693V21.001V21.001C15.7634 20.5345 15.732 20.0514 15.5783 19.601V19.601C15.2921 18.764 14.6013 18.1289 13.7433 17.914V17.914C12.3284 17.5524 10.8883 18.4061 10.5266 19.821C10.4722 20.0341 10.4445 20.2531 10.4443 20.473V20.473C10.4446 20.6503 10.4623 20.8272 10.4973 21.001L7.27842 21V21C6.11285 21.0002 5.16776 20.0556 5.16742 18.89V15.67V15.67C4.99358 15.705 4.81673 15.7227 4.63942 15.723V15.723C3.17909 15.7215 1.99651 14.5364 1.99805 13.076C1.99828 12.8561 2.02595 12.6371 2.08041 12.424L2.08041 12.424C2.29535 11.5659 2.93039 10.8752 3.76741 10.589H3.76741C4.21779 10.4353 4.70092 10.4039 5.16741 10.498H5.16642V7.27801V7.27785C5.16642 6.11207 6.11147 5.16701 7.27726 5.16701C7.27736 5.16701 7.27747 5.16701 7.27758 5.16701H10.4976L10.4976 5.16701C10.4626 4.99317 10.4449 4.81632 10.4446 4.63901V4.63911C10.4461 3.17878 11.6311 1.99617 13.0915 1.99768C13.3113 1.99791 13.5303 2.02556 13.7433 2.07998V2.07998C14.6011 2.29553 15.2916 2.93034 15.5783 3.76698V3.76698C15.7321 4.21736 15.7635 4.70049 15.6693 5.16698H18.8893V5.16698C20.0551 5.16684 21.0003 6.11178 21.0004 7.27756C21.0004 7.27771 21.0004 7.27786 21.0004 7.27801" stroke="#796BE9" stroke-width="1.5" stroke-linecap="round" stroke-linejoin="round"/>
</g>
<defs>
<clipPath id="clip0_7_327">
<rect width="24" height="24" fill="white"/>
</clipPath>
</defs>
</svg>
