<svg width="24" height="24" viewBox="0 0 24 24" fill="none" xmlns="http://www.w3.org/2000/svg">
<g clip-path="url(#clip0_7_886)">
<path d="M8 4V17" stroke="#F3CA33" stroke-width="1.5" stroke-linecap="round" stroke-linejoin="round"/>
<path d="M19 17V21" stroke="#F3CA33" stroke-width="1.5" stroke-linecap="round" stroke-linejoin="round"/>
<path d="M17 4H19C19.552 4 20 4.448 20 5V16C20 16.552 19.552 17 19 17H6C4.895 17 4 17.895 4 19C4 20.105 4.895 21 6 21H20" stroke="#F3CA33" stroke-width="1.5" stroke-linecap="round" stroke-linejoin="round"/>
<path d="M4 19V6C4 4.895 4.895 4 6 4H13" stroke="#F3CA33" stroke-width="1.5" stroke-linecap="round" stroke-linejoin="round"/>
<path d="M16 3H14C13.448 3 13 3.448 13 4V9L15 8L17 9V4C17 3.448 16.552 3 16 3Z" stroke="#F3CA33" stroke-width="1.5" stroke-linecap="round" stroke-linejoin="round"/>
</g>
<defs>
<clipPath id="clip0_7_886">
<rect width="24" height="24" fill="white"/>
</clipPath>
</defs>
</svg>
