<svg width="24" height="24" viewBox="0 0 24 24" fill="none" xmlns="http://www.w3.org/2000/svg">
<g clip-path="url(#clip0_7_735)">
<path d="M15 15.1899H9" stroke="#796BE9" stroke-width="1.5" stroke-linecap="round" stroke-linejoin="round"/>
<path d="M8.54094 14.8959C6.76494 13.6409 5.69994 11.4499 6.07494 9.03795C6.48094 6.43095 8.65394 4.34995 11.2749 4.04295C14.9129 3.61595 17.9999 6.44795 17.9999 9.99995C17.9999 12.0249 16.9939 13.8119 15.4569 14.8979C15.1809 15.0929 14.9999 15.3949 14.9999 15.7329V18.4999C14.9999 19.8809 13.8809 20.9999 12.4999 20.9999H11.4999C10.1189 20.9999 8.99994 19.8809 8.99994 18.4999V15.7369C8.99994 15.3959 8.81794 15.0919 8.54094 14.8959Z" stroke="#796BE9" stroke-width="1.5" stroke-linecap="round" stroke-linejoin="round"/>
<path d="M20 5.00006L21.19 3.81006" stroke="#796BE9" stroke-width="1.5" stroke-linecap="round" stroke-linejoin="round"/>
<path d="M3.99957 15.0001L2.80957 16.1901" stroke="#796BE9" stroke-width="1.5" stroke-linecap="round" stroke-linejoin="round"/>
<path d="M4.99957 4.00006L3.80957 2.81006" stroke="#796BE9" stroke-width="1.5" stroke-linecap="round" stroke-linejoin="round"/>
<path d="M20 15L21.19 16.19" stroke="#796BE9" stroke-width="1.5" stroke-linecap="round" stroke-linejoin="round"/>
<path d="M21 10H22.69" stroke="#796BE9" stroke-width="1.5" stroke-linecap="round" stroke-linejoin="round"/>
<path d="M1.30957 10.0001H2.99957" stroke="#796BE9" stroke-width="1.5" stroke-linecap="round" stroke-linejoin="round"/>
<path d="M9 18H14.87" stroke="#796BE9" stroke-width="1.5" stroke-linecap="round" stroke-linejoin="round"/>
</g>
<defs>
<clipPath id="clip0_7_735">
<rect width="24" height="24" fill="white"/>
</clipPath>
</defs>
</svg>
