<svg width="24" height="24" viewBox="0 0 24 24" fill="none" xmlns="http://www.w3.org/2000/svg">
<g clip-path="url(#clip0_7_588)">
<path d="M15.0052 5.2448C16.6649 6.90453 16.6649 9.59548 15.0052 11.2552C13.3455 12.9149 10.6545 12.9149 8.9948 11.2552C7.33507 9.59548 7.33507 6.90453 8.9948 5.2448C10.6545 3.58507 13.3455 3.58507 15.0052 5.2448" stroke="#E77DAE" stroke-width="1.5" stroke-linecap="round" stroke-linejoin="round"/>
<path d="M4 20C4 17.515 6.015 15.5 8.5 15.5H11.083" stroke="#E77DAE" stroke-width="1.5" stroke-linecap="round" stroke-linejoin="round"/>
<path d="M13.999 21H16.278L19.706 17.572C20.097 17.181 20.097 16.548 19.706 16.158L18.842 15.294C18.451 14.903 17.818 14.903 17.428 15.294L14 18.721L13.999 21V21Z" stroke="#E77DAE" stroke-width="1.5" stroke-linecap="round" stroke-linejoin="round"/>
</g>
<defs>
<clipPath id="clip0_7_588">
<rect width="24" height="24" fill="white"/>
</clipPath>
</defs>
</svg>
