<svg width="24" height="24" viewBox="0 0 24 24" fill="none" xmlns="http://www.w3.org/2000/svg">
<g clip-path="url(#clip0_7_649)">
<path d="M9 6.44H20" stroke="#79C9F6" stroke-width="1.5" stroke-linecap="round" stroke-linejoin="round"/>
<path d="M20 12H9" stroke="#79C9F6" stroke-width="1.5" stroke-linecap="round" stroke-linejoin="round"/>
<path d="M9 17.56H20" stroke="#79C9F6" stroke-width="1.5" stroke-linecap="round" stroke-linejoin="round"/>
<path d="M4.5 5.939V5.939C4.22386 5.939 4 6.16285 4 6.439C4 6.71514 4.22386 6.939 4.5 6.939C4.77614 6.939 5 6.71514 5 6.439C5 6.16285 4.77614 5.939 4.5 5.939" stroke="#79C9F6" stroke-width="1.5" stroke-linecap="round" stroke-linejoin="round"/>
<path d="M4.5 11.5V11.5C4.22386 11.5 4 11.7239 4 12C4 12.2761 4.22386 12.5 4.5 12.5C4.77614 12.5 5 12.2761 5 12C5 11.7239 4.77614 11.5 4.5 11.5" stroke="#79C9F6" stroke-width="1.5" stroke-linecap="round" stroke-linejoin="round"/>
<path d="M4.5 17.061V17.061C4.22386 17.061 4 17.2848 4 17.561C4 17.8371 4.22386 18.061 4.5 18.061C4.77614 18.061 5 17.8371 5 17.561C5 17.2848 4.77614 17.061 4.5 17.061" stroke="#79C9F6" stroke-width="1.5" stroke-linecap="round" stroke-linejoin="round"/>
</g>
<defs>
<clipPath id="clip0_7_649">
<rect width="24" height="24" fill="white"/>
</clipPath>
</defs>
</svg>
