<svg width="24" height="24" viewBox="0 0 24 24" fill="none" xmlns="http://www.w3.org/2000/svg">
<g clip-path="url(#clip0_7_876)">
<path d="M6.944 19H5.056C4.473 19 4 18.527 4 17.944V10.556C4 9.973 4.473 9.5 5.056 9.5H6.944C7.527 9.5 8 9.973 8 10.556V17.944C8 18.527 7.527 19 6.944 19V19Z" stroke="#ED9F2A" stroke-width="1.5" stroke-linecap="round" stroke-linejoin="round"/>
<path d="M8 10.5719L11.649 5.82094C12.328 4.93594 13.654 4.91394 14.363 5.77494C14.628 6.09594 14.772 6.49994 14.772 6.91594V10.1869H17.868C18.469 10.1869 19.03 10.4869 19.364 10.9859L19.693 11.4769C19.988 11.9179 20.074 12.4669 19.927 12.9759L18.568 17.6979C18.346 18.4689 17.641 18.9999 16.839 18.9999H10.55C10.05 18.9999 9.572 18.7919 9.232 18.4259L8 17.0999" stroke="#ED9F2A" stroke-width="1.5" stroke-linecap="round" stroke-linejoin="round"/>
</g>
<defs>
<clipPath id="clip0_7_876">
<rect width="24" height="24" fill="white"/>
</clipPath>
</defs>
</svg>
