<svg width="24" height="24" viewBox="0 0 24 24" fill="none" xmlns="http://www.w3.org/2000/svg">
<g clip-path="url(#clip0_7_337)">
<path d="M9.00029 21H6.00029L5.99029 20.999C4.33029 20.989 2.99029 19.649 2.99029 17.999V17.998V5.99797C2.98029 4.33797 4.33029 2.98797 5.98029 2.98797H17.9803H17.9703C19.6203 2.97797 20.9703 4.32797 20.9703 5.98797V9.98797" stroke="#E8827A" stroke-width="1.5" stroke-linecap="round" stroke-linejoin="round"/>
<path d="M21 8H3" stroke="#E8827A" stroke-width="1.5" stroke-linecap="round" stroke-linejoin="round"/>
<path d="M12 16H21" stroke="#E8827A" stroke-width="1.5" stroke-linecap="round" stroke-linejoin="round"/>
<path d="M19.5002 21H13.5002H13.4902C12.6602 20.99 11.9902 20.32 11.9902 19.5V14.5V14.49C11.9902 13.66 12.6602 12.99 13.4902 12.99H19.4902L19.4802 12.989C20.3002 12.989 20.9702 13.659 20.9702 14.489V19.489C20.9702 20.309 20.2902 20.989 19.4702 20.989C19.4602 20.989 19.4602 20.989 19.4602 20.989L19.5002 21Z" stroke="#E8827A" stroke-width="1.5" stroke-linecap="round" stroke-linejoin="round"/>
</g>
<defs>
<clipPath id="clip0_7_337">
<rect width="24" height="24" fill="white"/>
</clipPath>
</defs>
</svg>
