<svg width="24" height="24" viewBox="0 0 24 24" fill="none" xmlns="http://www.w3.org/2000/svg">
<g clip-path="url(#clip0_7_1161)">
<path d="M18.2 15.0556L17.23 14.0856C16.745 13.6006 15.96 13.6006 15.476 14.0856L14.714 14.8476C14.544 15.0176 14.286 15.0746 14.066 14.9786C12.961 14.4946 11.87 13.7616 10.897 12.7886C9.92797 11.8196 9.19697 10.7336 8.71297 9.63262C8.61197 9.40562 8.67097 9.13862 8.84697 8.96162L9.52997 8.27862C10.085 7.72362 10.085 6.93962 9.59997 6.45462L8.62897 5.48462C7.98297 4.83862 6.93697 4.83862 6.29097 5.48462L5.75197 6.02362C5.13897 6.63662 4.88397 7.52062 5.04897 8.39662C5.45697 10.5566 6.71297 12.9226 8.73697 14.9476C10.761 16.9726 13.127 18.2276 15.288 18.6356C16.164 18.8006 17.048 18.5456 17.661 17.9326L18.2 17.3946C18.845 16.7486 18.845 15.7016 18.2 15.0556V15.0556Z" stroke="white" stroke-width="1.5" stroke-linecap="round" stroke-linejoin="round"/>
</g>
<defs>
<clipPath id="clip0_7_1161">
<rect width="24" height="24" fill="white"/>
</clipPath>
</defs>
</svg>
