<svg width="24" height="24" viewBox="0 0 24 24" fill="none" xmlns="http://www.w3.org/2000/svg">
<g clip-path="url(#clip0_7_830)">
<path d="M12.9401 11.0601L5.87012 18.1301" stroke="#796BE9" stroke-width="1.5" stroke-linecap="round" stroke-linejoin="round"/>
<path d="M6.63344 12.9991L3.17044 12.1811C2.78944 12.0911 2.65544 11.6181 2.93144 11.3411L5.68544 8.58709C5.87044 8.40209 6.12144 8.29609 6.38444 8.29409L9.48944 8.26709" stroke="#796BE9" stroke-width="1.5" stroke-linecap="round" stroke-linejoin="round"/>
<path d="M19.8791 8.97499L20.6871 5.08699C20.9071 4.02899 19.9711 3.09299 18.9131 3.31299L15.0251 4.12099C13.8801 4.35899 12.8301 4.92599 12.0041 5.75299L8.81407 8.94199C7.59707 10.159 6.80507 11.737 6.55507 13.44L6.54407 13.513C6.38607 14.6 6.75007 15.697 7.52607 16.474C8.30207 17.25 9.40007 17.614 10.4871 17.455L10.5601 17.444C12.2631 17.195 13.8411 16.402 15.0581 15.185L18.2471 11.996C19.0741 11.17 19.6411 10.12 19.8791 8.97499V8.97499Z" stroke="#796BE9" stroke-width="1.5" stroke-linecap="round" stroke-linejoin="round"/>
<path d="M13.4004 4.71411C15.7114 6.29011 17.7104 8.28911 19.2864 10.6001" stroke="#796BE9" stroke-width="1.5" stroke-linecap="round" stroke-linejoin="round"/>
<path d="M11 17.367L11.818 20.83C11.908 21.211 12.381 21.345 12.658 21.069L15.412 18.315C15.597 18.13 15.703 17.879 15.705 17.616L15.732 14.511" stroke="#796BE9" stroke-width="1.5" stroke-linecap="round" stroke-linejoin="round"/>
</g>
<defs>
<clipPath id="clip0_7_830">
<rect width="24" height="24" fill="white"/>
</clipPath>
</defs>
</svg>
