<svg width="24" height="24" viewBox="0 0 24 24" fill="none" xmlns="http://www.w3.org/2000/svg">
<g clip-path="url(#clip0_7_545)">
<path d="M13.5 13.7L6.69995 20.5C5.79995 21.4 4.39995 21.4 3.49995 20.5C2.59995 19.6 2.59995 18.2 3.49995 17.3L10.3 10.5C9.49995 8.5 9.99995 6.2 11.6 4.6C13.3 2.9 15.8 2.6 17.8 3.4C17.9 3.4 17.9 3.5 17.8 3.6L14.2 7.2L15.5 8.5L16.8 9.8L20.5 6.2C20.5 6.2 20.6 6.2 20.7 6.2C21.7 8.2 21.2 10.7 19.5 12.4C17.8 14 15.5 14.4 13.5 13.7V13.7Z" stroke="#E77DAE" stroke-width="1.5" stroke-linecap="round" stroke-linejoin="round"/>
</g>
<defs>
<clipPath id="clip0_7_545">
<rect width="24" height="24" fill="white"/>
</clipPath>
</defs>
</svg>
